<?xml version="1.0" standalone="no"?>
<!DOCTYPE svg PUBLIC "-//W3C//DTD SVG 20010904//EN"
 "http://www.w3.org/TR/2001/REC-SVG-20010904/DTD/svg10.dtd">
<svg version="1.0" xmlns="http://www.w3.org/2000/svg"
 width="1563.000000pt" height="1563.000000pt" viewBox="0 0 1563.000000 1563.000000"
 preserveAspectRatio="xMidYMid meet">

<g transform="translate(0.000000,1563.000000) scale(0.100000,-0.100000)"
fill="#000000" stroke="none">
<path d="M8437 15203 c-17 -31 -25 -72 -62 -299 -14 -84 -25 -180 -25 -215 0
-35 -7 -104 -15 -154 -29 -180 -17 -250 44 -243 43 5 58 52 81 264 17 157 20
234 16 424 -3 133 -9 237 -14 242 -7 7 -15 0 -25 -19z"/>
<path d="M9466 14154 c-22 -26 -86 -96 -141 -156 -55 -60 -125 -138 -155 -173
-87 -100 -292 -277 -460 -398 -242 -174 -502 -345 -661 -435 -149 -85 -279
-176 -287 -201 -6 -18 67 -11 198 18 52 12 131 28 175 36 95 16 298 90 410
149 44 23 130 62 190 86 61 24 124 52 140 64 79 53 265 243 493 503 135 154
185 259 196 408 7 99 -2 139 -33 143 -17 3 -34 -9 -65 -44z"/>
<path d="M8197 13963 c-25 -54 -60 -134 -77 -178 -70 -178 -184 -359 -299
-473 -98 -98 -283 -202 -461 -260 -73 -24 -263 -70 -420 -102 -138 -28 -187
-50 -205 -92 -23 -54 -8 -58 194 -58 398 0 608 42 728 144 148 127 495 654
561 851 18 53 42 265 30 265 -2 0 -25 -44 -51 -97z"/>
<path d="M10927 13885 c-30 -26 -67 -62 -82 -80 -14 -19 -116 -115 -228 -213
-248 -221 -452 -427 -625 -635 -184 -222 -227 -320 -171 -391 51 -64 96 -35
441 282 193 178 372 381 551 625 141 192 211 325 212 402 0 69 -23 71 -98 10z"/>
<path d="M9330 13152 c-66 -71 -297 -408 -372 -544 -79 -142 -99 -202 -75
-225 15 -15 21 -15 79 1 101 28 139 56 230 172 182 231 318 450 318 511 0 58
-66 133 -116 133 -10 0 -38 -22 -64 -48z"/>
<path d="M8385 12718 c-91 -33 -130 -41 -225 -49 -63 -5 -155 -15 -205 -23
-49 -8 -155 -20 -235 -26 -143 -11 -145 -11 -162 10 -10 12 -18 28 -18 35 0
27 -54 34 -151 19 -52 -8 -126 -14 -164 -14 -39 0 -125 -7 -190 -15 -66 -8
-237 -20 -380 -25 l-260 -11 -245 -64 c-135 -36 -319 -92 -410 -125 -100 -37
-177 -60 -195 -58 l-30 3 31 30 c17 17 77 59 133 94 129 80 144 107 58 104
-94 -4 -230 -63 -412 -179 -60 -38 -148 -92 -195 -119 -47 -26 -125 -79 -175
-116 -188 -141 -242 -184 -305 -239 -36 -31 -92 -76 -125 -100 -33 -24 -91
-73 -130 -110 -38 -36 -99 -90 -135 -120 -36 -30 -99 -86 -140 -124 -41 -39
-131 -120 -200 -181 -68 -60 -180 -162 -247 -226 -67 -64 -184 -170 -260 -235
-183 -156 -598 -567 -681 -674 -36 -47 -123 -144 -193 -216 -110 -113 -130
-139 -144 -185 -40 -130 -27 -268 40 -414 35 -79 188 -329 260 -426 91 -123
158 -281 196 -459 11 -52 25 -113 29 -135 5 -22 7 -80 4 -130 -6 -83 -4 -93
18 -125 29 -42 118 -106 167 -120 20 -5 59 -10 88 -10 39 0 70 -9 130 -38 44
-21 121 -47 178 -59 108 -24 376 -59 520 -68 50 -4 133 -13 185 -21 52 -8 170
-19 262 -23 92 -5 171 -12 176 -15 6 -3 68 -13 139 -21 70 -8 144 -19 163 -25
19 -6 73 -13 120 -16 47 -3 129 -14 182 -25 53 -10 112 -19 130 -19 53 0 306
-56 378 -83 36 -14 103 -42 150 -62 47 -20 144 -61 215 -90 72 -29 175 -74
230 -100 55 -26 194 -85 310 -132 115 -46 246 -101 290 -123 262 -125 326
-159 475 -253 91 -56 183 -116 205 -133 78 -57 220 -170 299 -239 45 -39 124
-107 176 -152 116 -100 338 -325 447 -453 45 -52 100 -113 123 -135 50 -47
220 -264 280 -356 103 -157 182 -361 215 -549 35 -199 37 -237 32 -475 -7
-300 -17 -349 -121 -560 -41 -82 -88 -183 -106 -224 -39 -89 -297 -600 -350
-691 -21 -36 -76 -141 -123 -235 -218 -430 -484 -796 -763 -1051 -107 -97
-140 -120 -314 -216 -201 -112 -328 -174 -474 -230 -234 -90 -297 -109 -565
-169 -145 -33 -268 -62 -274 -66 -6 -3 -114 -10 -241 -14 -215 -7 -311 -16
-540 -55 -93 -16 -156 -37 -156 -52 0 -5 12 -14 28 -20 28 -11 196 -44 316
-62 37 -6 99 -17 138 -25 38 -8 95 -15 126 -15 31 0 111 -9 177 -20 104 -17
167 -20 469 -20 314 0 361 2 465 21 144 27 231 50 346 94 50 19 155 57 235 84
241 81 606 236 784 334 329 179 559 353 851 641 239 237 402 460 593 816 56
104 165 386 202 520 12 47 31 114 41 150 9 36 21 94 24 130 4 36 13 94 21 130
9 44 14 141 14 300 0 247 -16 407 -60 601 -11 47 -20 94 -20 103 0 21 -84 245
-116 308 -13 26 -37 63 -54 81 -21 25 -30 45 -30 70 0 40 -43 181 -83 269 -57
127 -167 293 -376 568 -333 438 -527 657 -723 816 -47 38 -141 116 -208 174
-212 181 -496 403 -640 500 -36 24 -117 83 -180 130 -63 48 -142 105 -175 128
-33 23 -101 72 -152 110 -93 68 -216 146 -508 322 -88 53 -198 121 -245 151
-47 30 -116 72 -155 93 -38 21 -113 66 -165 100 -52 34 -160 99 -240 143 -574
318 -625 349 -637 380 -3 8 -1 19 6 26 15 15 87 -4 312 -82 367 -125 553 -208
774 -341 65 -39 177 -103 249 -142 72 -39 151 -85 175 -101 25 -17 95 -59 155
-93 297 -168 427 -246 544 -328 70 -49 166 -115 214 -147 47 -32 117 -86 155
-119 37 -34 112 -90 165 -126 53 -36 116 -82 140 -103 24 -21 69 -57 101 -79
233 -163 733 -661 1046 -1041 471 -573 743 -1006 847 -1348 79 -260 95 -316
117 -408 34 -136 62 -407 62 -595 0 -163 -26 -441 -49 -525 -8 -27 -17 -68
-21 -90 -3 -22 -15 -69 -25 -105 -10 -36 -33 -117 -50 -180 -60 -217 -160
-440 -316 -705 -187 -317 -540 -719 -808 -920 -411 -309 -457 -336 -796 -468
-102 -40 -224 -79 -458 -147 -41 -12 -113 -26 -160 -31 -48 -5 -103 -14 -122
-20 -19 -6 -87 -14 -150 -19 -162 -12 -257 -53 -212 -93 45 -38 286 -92 482
-107 74 -5 153 -15 175 -21 87 -23 1438 -42 1820 -26 118 5 226 16 285 28 52
10 136 26 185 35 50 9 123 22 163 30 114 21 405 99 542 144 161 54 465 204
595 295 33 23 94 65 135 92 123 83 505 433 591 543 94 119 303 429 339 505 22
44 46 109 55 145 29 123 35 138 85 214 53 81 118 204 149 284 11 26 37 85 59
132 118 251 226 617 338 1140 100 467 119 683 119 1350 0 422 -3 522 -17 610
-9 58 -20 143 -23 190 -4 47 -13 112 -20 145 -7 33 -17 89 -20 125 -4 36 -11
75 -16 88 -5 12 -13 53 -19 90 -20 129 -123 541 -189 752 -167 537 -193 610
-292 826 -43 94 -107 242 -142 330 -148 368 -222 504 -275 504 -25 0 -153 -81
-194 -123 -57 -59 -88 -130 -88 -201 0 -69 18 -115 78 -203 56 -82 79 -133
165 -353 137 -351 176 -456 196 -526 46 -164 119 -406 191 -634 75 -235 112
-386 145 -585 7 -44 20 -118 28 -165 15 -83 27 -163 47 -325 5 -44 18 -141 27
-215 25 -195 32 -1540 9 -1730 -8 -69 -18 -156 -21 -195 -19 -221 -166 -815
-226 -914 -26 -43 -54 -41 -69 5 -12 35 -8 111 15 349 3 28 10 185 15 350 5
165 15 334 21 375 15 111 23 720 10 885 -6 77 -15 212 -21 300 -23 347 -38
495 -70 660 -10 55 -23 123 -28 150 -18 94 -91 410 -132 570 -81 316 -83 320
-262 775 -71 181 -292 632 -383 786 -49 81 -125 197 -169 258 -45 61 -124 174
-177 251 -53 77 -133 193 -178 259 -45 65 -141 195 -215 290 -228 293 -540
576 -897 812 -57 39 -131 88 -164 111 -162 111 -391 255 -486 306 -59 31 -158
87 -222 126 -63 38 -159 93 -213 121 -126 67 -248 145 -375 240 -56 41 -122
89 -148 105 l-46 30 -885 3 c-771 2 -909 0 -1075 -15 -226 -20 -253 -20 -305
1 -69 27 -158 21 -252 -18 -46 -19 -110 -42 -143 -52 -89 -25 -202 -75 -270
-118 -86 -56 -208 -162 -465 -406 -125 -118 -264 -249 -310 -291 -119 -109
-116 -113 80 -115 305 -2 676 -16 730 -25 30 -6 111 -26 180 -46 207 -59 350
-93 389 -93 20 0 54 -5 76 -10 22 -6 81 -17 130 -25 97 -16 253 -44 380 -68
44 -8 136 -25 205 -36 69 -12 170 -31 225 -42 55 -10 116 -19 135 -19 19 0 78
-11 130 -24 294 -75 428 -112 545 -152 72 -24 137 -44 143 -44 7 0 94 -30 194
-66 393 -143 901 -425 1222 -679 168 -132 604 -565 752 -746 105 -129 274
-359 363 -494 47 -71 105 -157 129 -190 167 -227 435 -757 557 -1100 31 -87
81 -222 110 -300 54 -143 109 -319 139 -452 10 -40 39 -143 66 -230 76 -245
144 -621 175 -963 8 -85 19 -198 24 -250 6 -52 11 -248 11 -435 0 -361 2 -335
-61 -695 -43 -240 -147 -587 -246 -816 -44 -100 -233 -419 -298 -504 -59 -76
-163 -176 -267 -257 -174 -136 -235 -189 -348 -298 -106 -102 -182 -155 -222
-155 -23 0 -39 25 -31 46 11 31 114 143 363 398 300 307 355 386 575 827 81
161 115 241 153 365 71 230 116 421 127 549 3 39 13 105 21 149 19 107 19 504
-1 651 -8 61 -19 164 -24 230 -6 66 -17 161 -26 210 -109 632 -158 833 -317
1310 -126 375 -241 656 -349 847 -26 48 -80 146 -119 218 -114 215 -315 509
-568 834 -76 98 -123 156 -272 332 -106 126 -540 560 -630 630 -41 32 -100 81
-130 108 -128 115 -589 434 -750 519 -52 28 -132 72 -177 99 -156 93 -509 244
-838 360 -175 61 -536 158 -590 158 -16 0 -63 9 -104 20 -41 11 -103 20 -137
20 -34 0 -97 7 -139 15 -42 8 -111 17 -153 21 -42 3 -115 12 -162 19 -47 8
-148 19 -225 25 -77 6 -170 15 -207 20 -37 6 -165 12 -285 16 -121 3 -278 14
-353 24 -229 32 -395 42 -495 31 -49 -6 -126 -11 -170 -11 -92 0 -183 -18
-535 -105 -211 -52 -298 -80 -505 -159 -326 -126 -339 -132 -343 -173 -3 -28
3 -36 40 -63 102 -75 247 -135 448 -186 74 -19 209 -55 300 -80 91 -24 199
-54 240 -65 41 -11 280 -87 530 -169 250 -82 496 -160 545 -175 171 -51 530
-215 675 -309 36 -24 80 -49 98 -56 20 -8 44 -29 58 -51 31 -50 121 -95 509
-254 210 -87 363 -168 465 -246 19 -15 67 -44 105 -65 39 -21 90 -52 115 -70
25 -17 86 -52 135 -79 172 -91 501 -316 696 -475 104 -85 238 -187 297 -227
355 -239 523 -397 796 -752 32 -42 85 -109 117 -149 97 -120 233 -332 268
-417 138 -331 233 -629 291 -918 20 -100 22 -128 17 -385 -6 -315 -17 -401
-99 -717 -22 -87 -127 -375 -191 -523 -42 -100 -247 -475 -297 -545 -16 -23
-51 -71 -76 -107 -26 -36 -111 -139 -189 -230 -157 -181 -297 -304 -622 -545
-193 -143 -569 -348 -813 -443 -119 -46 -370 -115 -402 -110 -37 5 -31 25 14
46 24 11 105 43 181 71 215 80 500 234 622 335 28 23 68 55 90 71 83 61 273
222 354 299 46 45 124 135 174 201 50 66 120 156 157 200 200 239 374 532 484
815 59 150 99 248 160 385 80 183 111 323 177 815 41 308 6 599 -115 944 -50
143 -86 206 -160 273 -63 58 -137 152 -200 253 -36 58 -46 84 -46 118 0 95
-111 242 -230 302 -32 16 -67 41 -77 55 -44 64 -69 88 -132 129 -37 24 -89 69
-117 101 -27 32 -112 125 -189 207 -120 128 -179 182 -354 324 -54 44 -304
206 -393 255 -251 138 -371 201 -437 229 -40 17 -149 72 -244 122 -94 51 -205
106 -247 124 -41 17 -142 62 -225 99 -82 37 -184 80 -225 96 -118 46 -425 120
-555 134 -33 4 -85 12 -115 20 -30 7 -89 16 -130 20 -41 4 -102 13 -135 20
-33 7 -85 16 -115 20 -30 4 -80 13 -110 20 -30 7 -82 16 -115 20 -184 21 -481
76 -585 108 -61 20 -183 51 -315 83 -186 44 -277 73 -360 114 -107 53 -239
152 -295 222 -53 67 -149 233 -174 303 -10 28 -40 84 -66 125 -180 285 -200
321 -200 368 1 38 12 50 136 143 161 122 274 194 415 264 166 84 226 107 366
145 214 57 516 159 677 230 307 134 448 232 690 482 431 445 468 478 585 538
36 17 108 44 160 58 l96 25 630 9 c347 5 833 11 1080 12 328 2 465 6 504 15
68 17 162 9 292 -23 196 -49 337 -124 453 -240 69 -70 203 -166 232 -166 16 0
267 -149 389 -231 741 -496 859 -558 1070 -559 102 -1 104 -1 355 -65 178 -45
187 -46 222 -32 21 9 48 33 66 59 47 69 149 267 171 335 29 85 29 220 1 282
l-20 43 -58 -4 c-42 -4 -72 -14 -117 -41 -77 -46 -249 -93 -375 -102 -161 -12
-331 -41 -382 -66 l-48 -23 -67 22 c-38 12 -76 22 -87 22 -10 0 -60 18 -111
40 -86 38 -101 50 -219 165 -101 99 -126 129 -126 151 0 23 27 54 139 163
l139 136 164 69 c312 131 571 282 598 347 27 65 -35 163 -158 251 -169 120
-242 120 -127 -1 98 -103 83 -145 -74 -218 -218 -102 -400 -142 -508 -113 -43
12 -71 36 -248 210 -250 247 -372 330 -696 481 -93 43 -180 86 -194 95 -31 20
-69 15 -153 -21 -134 -57 -156 -58 -737 -49 -858 14 -971 11 -1420 -37 -273
-29 -450 -72 -685 -166 -287 -116 -482 -244 -775 -505 -66 -59 -158 -142 -205
-183 -47 -42 -118 -105 -158 -141 -39 -36 -120 -104 -180 -151 -59 -47 -125
-102 -147 -123 -22 -21 -86 -76 -141 -122 -209 -171 -341 -284 -419 -358 -44
-42 -99 -89 -122 -103 -24 -15 -78 -59 -120 -98 -43 -39 -116 -96 -163 -127
-47 -31 -105 -72 -130 -92 -51 -42 -131 -94 -312 -204 -231 -139 -297 -161
-337 -110 -24 31 -27 64 -7 102 17 33 136 136 381 332 99 79 209 171 245 205
36 34 90 81 120 105 30 25 111 96 180 160 226 209 275 254 391 356 63 56 139
121 169 145 30 23 78 64 107 89 28 26 96 82 150 125 54 44 141 118 193 165 52
47 129 113 170 147 41 33 89 75 105 93 17 18 66 60 110 93 44 34 105 81 135
106 82 66 284 198 373 243 44 21 125 54 180 73 102 34 404 115 527 142 36 7
85 20 110 28 87 27 267 55 424 65 87 6 162 13 166 15 4 2 70 9 146 15 76 6
186 17 244 26 107 15 194 12 460 -15 254 -26 323 -31 422 -31 113 0 238 19
286 44 42 21 82 71 131 161 49 89 58 139 26 142 -11 1 -69 -17 -130 -39z
m-1736 -2139 c159 -16 184 -35 145 -112 -28 -53 -148 -209 -200 -259 -73 -69
-197 -154 -261 -178 -83 -31 -240 -70 -281 -70 -120 0 -624 138 -681 186 -55
46 -51 109 10 178 52 60 107 86 201 96 53 6 139 27 237 60 130 43 323 88 436
103 66 9 285 6 394 -4z m4027 -2470 c82 -63 140 -131 296 -347 77 -109 170
-235 204 -282 210 -283 318 -450 352 -543 18 -48 71 -167 118 -264 86 -175
169 -390 238 -618 20 -66 57 -181 81 -255 107 -328 186 -614 200 -730 4 -30
13 -93 20 -140 8 -47 17 -134 20 -195 4 -60 13 -150 20 -200 53 -338 52 -1340
0 -1612 -14 -72 -31 -197 -56 -418 -15 -137 -63 -295 -125 -418 -30 -60 -79
-168 -110 -240 -69 -161 -136 -294 -206 -409 -45 -74 -86 -119 -270 -297 -161
-155 -232 -216 -273 -237 -31 -14 -58 -24 -61 -22 -4 5 75 114 214 296 23 29
75 121 117 204 60 118 79 165 86 217 11 74 25 91 77 91 50 0 85 42 163 196 66
130 90 204 137 424 40 185 73 320 88 362 11 30 19 106 25 243 4 110 13 232 18
270 16 104 13 539 -3 685 -8 69 -17 184 -21 255 -4 72 -13 159 -20 195 -7 36
-16 99 -20 140 -7 78 -32 229 -65 385 -11 50 -30 153 -44 230 -59 338 -196
784 -371 1210 -32 77 -70 176 -85 220 -76 225 -260 569 -458 856 -251 364
-442 687 -442 745 0 67 72 68 156 3z m74 -5746 c0 -39 -36 -213 -61 -298 -26
-86 -121 -276 -201 -404 -195 -309 -371 -487 -704 -708 -49 -33 -147 -100
-219 -150 -131 -91 -293 -180 -395 -215 -62 -21 -287 -68 -329 -68 -36 0 -66
22 -58 43 3 9 88 70 189 136 382 249 766 523 873 621 38 36 96 87 127 113 74
62 299 310 409 452 47 61 129 180 181 265 119 191 154 240 173 240 10 0 15
-10 15 -27z"/>
<path d="M11325 12685 c-61 -47 -75 -49 -75 -9 0 59 -57 13 -260 -211 -181
-200 -319 -336 -408 -403 -95 -71 -101 -95 -32 -129 69 -35 138 -31 230 13 67
31 94 55 249 210 99 100 191 184 215 196 47 24 211 179 232 220 22 43 18 92
-12 127 -37 44 -69 41 -139 -14z"/>
<path d="M11527 12198 c-55 -76 -208 -305 -309 -463 -130 -203 -133 -218 -69
-320 21 -33 49 -80 62 -104 47 -87 69 -80 182 60 177 218 229 329 249 535 10
103 9 119 -11 205 -12 52 -27 99 -33 106 -18 22 -46 14 -71 -19z"/>
<path d="M10885 11340 c-87 -20 -427 -185 -510 -248 -65 -49 -81 -81 -61 -120
21 -41 106 -115 162 -141 62 -30 172 -41 399 -41 266 0 285 7 285 112 0 121
-67 300 -143 383 -45 49 -84 65 -132 55z"/>
<path d="M11578 11180 c-41 -25 -158 -243 -158 -297 0 -39 7 -40 61 -13 66 34
139 181 139 281 0 40 -10 47 -42 29z"/>
<path d="M10613 9860 c-78 -32 60 -159 173 -160 46 0 94 30 94 59 0 28 -43 61
-106 81 -80 24 -135 31 -161 20z"/>
<path d="M3249 8731 c15 -27 89 -72 221 -134 110 -52 239 -92 520 -162 58 -15
141 -37 185 -50 113 -33 367 -89 520 -115 72 -11 180 -30 240 -40 61 -11 137
-22 170 -26 33 -3 93 -15 134 -25 41 -10 102 -19 136 -19 34 0 85 -7 114 -16
29 -8 83 -17 120 -18 36 -2 96 -7 132 -11 48 -5 68 -4 74 4 10 17 -33 61 -59
61 -12 0 -43 7 -71 14 -183 52 -247 68 -309 76 -87 12 -173 30 -386 80 -91 21
-219 51 -285 66 -66 15 -156 37 -200 49 -44 12 -114 30 -155 39 -41 10 -158
38 -260 62 -321 78 -457 107 -545 119 -27 4 -99 20 -160 36 -133 35 -150 36
-136 10z"/>
</g>
</svg>
